<?xml version="1.0" encoding="utf-8"?>
<!-- Generator: Adobe Illustrator 21.0.0, SVG Export Plug-In . SVG Version: 6.00 Build 0)  -->
<svg version="1.1" id="Layer_1" xmlns:sketch="http://www.bohemiancoding.com/sketch/ns"
	 xmlns="http://www.w3.org/2000/svg" xmlns:xlink="http://www.w3.org/1999/xlink" x="0px" y="0px" viewBox="0 0 124 23"
	 style="enable-background:new 0 0 124 23;" xml:space="preserve">
<style type="text/css">
	.st0{enable-background:new    ;}
	.st1{fill:#0BA65C;}
	.st2{fill:#FFB200;}
	.st3{fill:#506C82;}
</style>
<g>
	<title>cd-logo</title>
	<desc>Created with Sketch.</desc>
	<g class="st0">
		<path d="M16.9,12.3L16.9,12.3c0,1.1-0.2,2-0.8,2.5c-0.5,0.6-1.3,0.8-2.3,0.8c-1,0-1.8-0.3-2.4-1c-0.6-0.7-0.9-1.6-0.9-2.9V9.2
			c0-1.2,0.3-2.2,0.9-2.9c0.6-0.7,1.3-1,2.3-1c1,0,1.8,0.3,2.4,0.8c0.6,0.6,0.8,1.4,0.8,2.5l0,0h-1.8c0-0.7-0.1-1.1-0.3-1.4
			s-0.6-0.4-1.1-0.4c-0.5,0-0.8,0.2-1,0.6c-0.2,0.4-0.3,1-0.3,1.7v2.6c0,0.8,0.1,1.4,0.4,1.8c0.2,0.4,0.6,0.6,1.1,0.6
			c0.5,0,0.8-0.1,1-0.4s0.3-0.8,0.3-1.4H16.9z"/>
		<path d="M22.2,13.3h-2.3l-0.5,2.2h-1.9l2.7-10.1H22l2.7,10.1h-1.9L22.2,13.3z M20.2,11.8h1.6l-0.8-3.2h0L20.2,11.8z"/>
		<path d="M29.5,12.9L29.5,12.9l1.8-7.5h2.4v10.1h-1.8V9.1l0,0l-1.7,6.4h-1.2l-1.7-6.3l0,0v6.3h-1.8V5.4h2.4L29.5,12.9z"/>
		<path d="M35,15.5V5.4h2.7c1,0,1.7,0.2,2.3,0.7c0.5,0.5,0.8,1.1,0.8,2.1c0,0.5-0.1,0.9-0.3,1.3c-0.2,0.4-0.5,0.6-0.9,0.8
			c0.5,0.1,0.9,0.4,1.2,0.8c0.3,0.4,0.4,0.9,0.4,1.5c0,1-0.3,1.7-0.8,2.2c-0.5,0.5-1.3,0.7-2.2,0.7H35z M36.8,9.7h1
			c0.4,0,0.7-0.1,0.9-0.4c0.2-0.2,0.3-0.6,0.3-1c0-0.5-0.1-0.8-0.3-1.1c-0.2-0.2-0.5-0.3-1-0.3h-0.9V9.7z M36.8,11.1V14h1.3
			c0.4,0,0.7-0.1,0.9-0.4c0.2-0.2,0.3-0.6,0.3-1.1c0-0.5-0.1-0.8-0.3-1.1c-0.2-0.3-0.5-0.4-0.9-0.4h-0.1H36.8z"/>
		<path d="M49,11.7c0,1.2-0.3,2.2-0.9,2.9c-0.6,0.7-1.4,1.1-2.5,1.1c-1,0-1.9-0.4-2.5-1.1c-0.6-0.7-0.9-1.7-0.9-2.9V9.3
			c0-1.2,0.3-2.2,0.9-2.9s1.4-1.1,2.5-1.1c1,0,1.9,0.4,2.5,1.1C48.7,7.1,49,8.1,49,9.3V11.7z M47.2,9.3c0-0.8-0.1-1.4-0.4-1.8
			c-0.3-0.4-0.7-0.6-1.2-0.6c-0.5,0-0.9,0.2-1.2,0.6c-0.3,0.4-0.4,1-0.4,1.8v2.4c0,0.8,0.1,1.4,0.4,1.8c0.3,0.4,0.7,0.6,1.2,0.6
			c0.5,0,0.9-0.2,1.2-0.6c0.3-0.4,0.4-1,0.4-1.8V9.3z"/>
		<path d="M50.3,15.5V5.4h2.9c1,0,1.8,0.4,2.4,1.2c0.6,0.8,1,1.8,1,3v1.7c0,1.2-0.3,2.2-1,3c-0.6,0.8-1.4,1.2-2.4,1.2H50.3z M52.1,7
			v7h1.1c0.5,0,0.9-0.2,1.1-0.7s0.4-1.1,0.4-1.9V9.6c0-0.8-0.1-1.4-0.4-1.9S53.6,7,53.1,7H52.1z"/>
		<path d="M59.7,15.5h-1.8V5.4h1.8V15.5z"/>
		<path d="M65.4,13.3h-2.3l-0.5,2.2h-1.9l2.7-10.1h1.9l2.7,10.1h-1.9L65.4,13.3z M63.4,11.8H65l-0.8-3.2h0L63.4,11.8z"/>
	</g>
	<g class="st0">
		<path class="st1" d="M76.7,7h-2.1v8.5H73V7h-2V5.4h5.8V7z"/>
		<path class="st1" d="M83.4,11.7c0,1.2-0.3,2.2-0.9,2.9c-0.6,0.7-1.4,1.1-2.3,1.1c-1,0-1.7-0.4-2.3-1.1c-0.6-0.7-0.9-1.7-0.9-2.9
			V9.3c0-1.2,0.3-2.2,0.9-2.9c0.6-0.7,1.4-1.1,2.3-1.1c1,0,1.7,0.4,2.3,1.1c0.6,0.7,0.9,1.7,0.9,2.9V11.7z M81.7,9.3
			c0-0.8-0.1-1.4-0.4-1.8s-0.6-0.6-1.1-0.6c-0.5,0-0.9,0.2-1.1,0.6c-0.3,0.4-0.4,1-0.4,1.8v2.4c0,0.8,0.1,1.4,0.4,1.8
			c0.3,0.4,0.6,0.6,1.1,0.6c0.5,0,0.9-0.2,1.1-0.6c0.3-0.4,0.4-1,0.4-1.8V9.3z"/>
		<path class="st1" d="M86.3,14h3.3v1.5h-5V5.4h1.7V14z"/>
		<path class="st1" d="M92.3,14h3.3v1.5h-5V5.4h1.7V14z"/>
		<path class="st1" d="M103.8,11.3H101v4.2h-1.7V5.4h5V7H101v2.8h2.8V11.3z"/>
		<path class="st1" d="M107,11.5v4h-1.7V5.4h2.6c0.9,0,1.6,0.3,2.1,0.8c0.5,0.5,0.8,1.2,0.8,2.2c0,0.5-0.1,1-0.3,1.3
			c-0.2,0.4-0.5,0.7-0.9,0.9c0.5,0.2,0.8,0.5,1,0.9c0.2,0.4,0.3,0.9,0.3,1.5v0.7c0,0.3,0,0.6,0.1,0.9c0.1,0.3,0.2,0.5,0.3,0.7v0.1
			h-1.8c-0.1-0.1-0.2-0.4-0.3-0.7s-0.1-0.7-0.1-1v-0.7c0-0.5-0.1-0.9-0.3-1.2c-0.2-0.3-0.5-0.4-0.8-0.4H107z M107,9.9h0.9
			c0.4,0,0.6-0.1,0.8-0.4c0.2-0.2,0.3-0.6,0.3-1.1c0-0.5-0.1-0.8-0.3-1.1C108.6,7.1,108.3,7,108,7H107V9.9z"/>
		<path class="st1" d="M116.5,11.1h-2.7V14h3.2v1.5h-4.9V5.4h4.9V7h-3.2v2.6h2.7V11.1z"/>
		<path class="st1" d="M122.5,11.1h-2.7V14h3.2v1.5h-4.9V5.4h4.9V7h-3.2v2.6h2.7V11.1z"/>
	</g>
	<g>
		<path id="XMLID_852_" class="st2" d="M9,5.6H8.6V8H9c0.4,0,0.4-0.2,0.4-0.5V6.1C9.4,5.8,9.5,5.6,9,5.6z"/>
		<path id="XMLID_853_" class="st2" d="M9,8.2H8.6v2.5H9c0.4,0,0.4-0.2,0.4-0.5V8.8C9.4,8.5,9.5,8.2,9,8.2z"/>
		<path id="XMLID_854_" class="st2" d="M9,11H8.6v2.4H9c0.4,0,0.4-0.2,0.4-0.5v-1.4C9.4,11.2,9.5,11,9,11z"/>
		<path id="XMLID_855_" class="st3" d="M2.1,5.6C1.5,5.6,1,6.1,1,6.8v1.4v4.5v1.5c0,0.7,0.5,1.2,1.1,1.2h6.2v-2.7V8.2V5.6H2.1z"/>
		<path id="XMLID_856_" class="st2" d="M6.8,12c-0.2-0.4-0.5-0.6-0.9-0.4l-0.1,0.1c-0.6,0-1-0.9-1.1-1C4.6,10.6,4,9.8,4.3,9.3
			l0.1-0.1c0.4-0.2,0.3-0.6,0.1-1l0,0C4.3,7.9,4.2,7.6,3.9,7.7L3.7,7.8C3.4,8,3.2,8.2,3.1,8.4l0,0c0,0-0.3,0.5-0.2,1.3
			c0.1,0.2,0.1,0.4,0.2,0.5l0.6,1l0.6,1.1c0.1,0.2,0.2,0.3,0.3,0.5c0.6,0.5,1.2,0.5,1.2,0.5l0,0c0.2,0,0.5-0.1,0.7-0.2l0.2-0.1
			C7.3,12.7,7,12.4,6.8,12z"/>
		<path id="XMLID_857_" class="st2" d="M1.6,6.9H0.5c0,0-0.1,0-0.1,0.1v0.2c0,0.1,0.1,0.1,0.1,0.1h1.1c0.1,0,0.1-0.1,0.1-0.1
			L1.6,6.9C1.6,6.9,1.6,6.9,1.6,6.9z"/>
		<path id="XMLID_858_" class="st2" d="M1.5,8.6h-1c-0.1,0-0.1,0.1-0.1,0.1v0.2C0.4,8.9,0.5,9,0.5,9h1c0.1,0,0.1-0.1,0.1-0.1V8.7
			C1.6,8.6,1.6,8.6,1.5,8.6z"/>
		<path id="XMLID_859_" class="st2" d="M1.5,10.3h-1c-0.1,0-0.1,0.1-0.1,0.1v0.2c0,0.1,0.1,0.1,0.1,0.1h1c0.1,0,0.1-0.1,0.1-0.1
			v-0.2C1.6,10.3,1.6,10.3,1.5,10.3z"/>
		<path id="XMLID_860_" class="st2" d="M1.5,11.9h-1c-0.1,0-0.1,0.1-0.1,0.1v0.2c0,0.1,0.1,0.1,0.1,0.1h1c0.1,0,0.1-0.1,0.1-0.1V12
			C1.6,12,1.6,11.9,1.5,11.9z"/>
		<path id="XMLID_861_" class="st2" d="M1.6,13.6H0.5c-0.1,0-0.1,0.1-0.1,0.1v0.2C0.4,14,0.5,14,0.5,14h1.1c0.1,0,0.1-0.1,0.1-0.1
			L1.6,13.6L1.6,13.6z"/>
	</g>
</g>
</svg>
